<mxfile host="app.diagrams.net" modified="2021-06-22T02:59:32.203Z" agent="5.0 (X11; Linux x86_64) AppleWebKit/537.36 (KHTML, like Gecko) Chrome/89.0.4389.114 Safari/537.36" etag="JXuOh-9Vu8iGyAKuOkug" version="14.8.0" type="github">
  <diagram id="1WPJASN0mxCN0nVR3oBN" name="Page-1">
    <mxGraphModel dx="801" dy="462" grid="1" gridSize="10" guides="1" tooltips="1" connect="1" arrows="1" fold="1" page="1" pageScale="1" pageWidth="827" pageHeight="1169" math="0" shadow="0">
      <root>
        <mxCell id="0" />
        <mxCell id="1" parent="0" />
        <mxCell id="Csg6u0J_EZvgzUimmfu2-1" value="GET, PUT, POST, DELETE" style="rounded=0;whiteSpace=wrap;html=1;fillColor=none;" vertex="1" parent="1">
          <mxGeometry x="242.5" y="130" width="277.5" height="60" as="geometry" />
        </mxCell>
        <mxCell id="Csg6u0J_EZvgzUimmfu2-4" style="edgeStyle=orthogonalEdgeStyle;rounded=0;orthogonalLoop=1;jettySize=auto;html=1;exitX=0;exitY=0.5;exitDx=0;exitDy=0;" edge="1" parent="1" source="Csg6u0J_EZvgzUimmfu2-2">
          <mxGeometry relative="1" as="geometry">
            <mxPoint x="240" y="270" as="targetPoint" />
          </mxGeometry>
        </mxCell>
        <mxCell id="Csg6u0J_EZvgzUimmfu2-2" value="Service layer" style="rounded=0;whiteSpace=wrap;html=1;" vertex="1" parent="1">
          <mxGeometry x="240" y="240" width="280" height="60" as="geometry" />
        </mxCell>
        <mxCell id="Csg6u0J_EZvgzUimmfu2-3" value="DAO/Repository" style="rounded=0;whiteSpace=wrap;html=1;" vertex="1" parent="1">
          <mxGeometry x="240" y="350" width="280" height="60" as="geometry" />
        </mxCell>
        <mxCell id="Csg6u0J_EZvgzUimmfu2-5" value="Angular" style="ellipse;whiteSpace=wrap;html=1;aspect=fixed;gradientColor=#7ea6e0;fillColor=#dae8fc;strokeColor=#6c8ebf;" vertex="1" parent="1">
          <mxGeometry x="230" width="80" height="80" as="geometry" />
        </mxCell>
        <mxCell id="Csg6u0J_EZvgzUimmfu2-6" value="React" style="ellipse;whiteSpace=wrap;html=1;aspect=fixed;gradientColor=#ffd966;fillColor=#fff2cc;strokeColor=#d6b656;" vertex="1" parent="1">
          <mxGeometry x="330" width="80" height="80" as="geometry" />
        </mxCell>
        <mxCell id="Csg6u0J_EZvgzUimmfu2-7" value="Android" style="ellipse;whiteSpace=wrap;html=1;aspect=fixed;gradientColor=#97d077;fillColor=#d5e8d4;strokeColor=#82b366;" vertex="1" parent="1">
          <mxGeometry x="430" width="80" height="80" as="geometry" />
        </mxCell>
        <mxCell id="Csg6u0J_EZvgzUimmfu2-8" value="" style="html=1;shadow=0;dashed=0;align=center;verticalAlign=middle;shape=mxgraph.arrows2.arrow;dy=0.6;dx=40;direction=south;notch=0;" vertex="1" parent="1">
          <mxGeometry x="346.25" y="190" width="70" height="60" as="geometry" />
        </mxCell>
        <mxCell id="Csg6u0J_EZvgzUimmfu2-9" value="" style="html=1;shadow=0;dashed=0;align=center;verticalAlign=middle;shape=mxgraph.arrows2.arrow;dy=0.6;dx=40;direction=south;notch=0;" vertex="1" parent="1">
          <mxGeometry x="340" y="300" width="70" height="60" as="geometry" />
        </mxCell>
        <mxCell id="Csg6u0J_EZvgzUimmfu2-10" value="" style="html=1;shadow=0;dashed=0;align=center;verticalAlign=middle;shape=mxgraph.arrows2.triadArrow;dy=10;dx=20;arrowHead=40;direction=west;" vertex="1" parent="1">
          <mxGeometry x="320" y="70" width="100" height="70" as="geometry" />
        </mxCell>
      </root>
    </mxGraphModel>
  </diagram>
</mxfile>
